<svg xmlns="http://www.w3.org/2000/svg" viewBox="0 0 100 100" id="marriage-ring">
  <path fill="#091531" d="M30,100A30,30,0,1,1,55.71,85.46a2,2,0,1,1-3.42-2.06A26,26,0,1,0,41.14,93.5a2,2,0,1,1,1.72,3.61A29.7,29.7,0,0,1,30,100Z"></path>
  <path fill="#091531" d="M70 100A30 30 0 0144.29 54.54a2 2 0 013.42 2.06A26 26 0 1058.86 46.5a2 2 0 11-1.72-3.61A29.7 29.7 0 0170 40a30 30 0 010 60zM50 40a2 2 0 01-1.41-.59L32.27 23.1A13.54 13.54 0 0150 2.73 13.53 13.53 0 0167.72 23.1L51.41 39.41A2 2 0 0150 40zM41.84 4A9.54 9.54 0 0035.1 20.28L50 35.17 64.9 20.28A9.54 9.54 0 0051.41 6.79a2 2 0 01-2.82 0A9.51 9.51 0 0041.84 4z"></path>
  <path fill="#091531" d="M70 92.53a2 2 0 010-4 18.53 18.53 0 000-37.06 2 2 0 010-4 22.53 22.53 0 010 45.06zM30.53 92.53a22.53 22.53 0 010-45.06 2 2 0 010 4 18.53 18.53 0 000 37.06 2 2 0 010 4z"></path>
</svg>
