<svg xmlns="http://www.w3.org/2000/svg" viewBox="0 0 1400 5200" fill="none">
  <path d="M-20 620C140 480 320 760 560 630C750 530 840 300 1020 280C1180 262 1290 310 1420 260" stroke="#9f4b56" stroke-width="1.15"/>
  <path d="M560 630C820 630 1080 580 1420 650" stroke="#9f4b56" stroke-width="1.15"/>
  <path d="M220 1500C460 1320 560 1700 830 1590C1060 1500 1120 1250 1420 1310" stroke="#9f4b56" stroke-width="1.05"/>
  <path d="M-40 2470C220 2320 340 2660 620 2520C870 2390 990 2160 1420 2250" stroke="#9f4b56" stroke-width="1.05"/>
  <path d="M350 3470C620 3320 760 3650 1040 3520C1230 3430 1310 3260 1420 3310" stroke="#9f4b56" stroke-width="1.05"/>
  <path d="M-30 4480C220 4340 420 4660 700 4540C980 4420 1130 4210 1420 4300" stroke="#9f4b56" stroke-width="1.05"/>
</svg>
